<?xml version="1.0" standalone="no"?>
<!DOCTYPE svg PUBLIC "-//W3C//DTD SVG 20010904//EN"
 "http://www.w3.org/TR/2001/REC-SVG-20010904/DTD/svg10.dtd">
<svg version="1.0" xmlns="http://www.w3.org/2000/svg"
 width="354.000000pt" height="354.000000pt" viewBox="0 0 354.000000 354.000000"
 preserveAspectRatio="xMidYMid meet">
<metadata>
Created by potrace 1.14, written by Peter Selinger 2001-2017
</metadata>
<g transform="translate(0.000000,354.000000) scale(0.100000,-0.100000)"
fill="#000000" stroke="none">
<path d="M0 1770 l0 -1770 1770 0 1770 0 0 1770 0 1770 -1770 0 -1770 0 0
-1770z m3483 275 c-1 -786 -2 -1554 -3 -1706 l0 -276 -1704 1 c-937 0 -1708 5
-1712 9 -7 7 -8 549 -5 2900 l1 507 1713 -2 1712 -3 -2 -1430z"/>
<path d="M1768 3223 c-2 -5 -4 -157 -3 -339 l1 -330 -111 1 c-147 1 -151 0
-151 -36 0 -16 2 -29 5 -30 3 0 62 -1 131 -2 l125 -2 1 -192 0 -193 -25 -1
c-14 0 -54 0 -88 1 l-63 1 0 -35 c0 -40 -4 -39 108 -36 l62 1 1 -43 c0 -24 1
-110 3 -191 1 -94 -2 -151 -8 -155 -6 -3 -58 -7 -116 -8 -149 -2 -139 0 -138
-34 l1 -29 109 -3 108 -3 -66 -115 c-291 -502 -485 -623 -1034 -646 -124 -5
-226 -11 -241 -13 -4 -1 -6 -16 -5 -33 l1 -33 -75 -1 c-41 -1 -80 -2 -85 -3
-9 -1 -11 -23 -6 -62 1 -4 49 -6 107 -5 58 0 108 -2 110 -6 2 -3 5 -50 6 -102
l1 -96 33 0 34 0 0 103 0 104 298 -1 297 -1 3 -76 c3 -72 4 -77 27 -81 35 -7
46 4 44 48 -1 21 -1 55 0 75 l1 35 298 0 298 1 -1 -161 c-1 -89 1 -167 3 -174
2 -6 17 -12 33 -12 23 0 29 5 30 23 0 12 2 83 4 157 2 74 4 142 4 150 1 13 42
15 296 16 162 1 295 -1 296 -5 0 -3 1 -33 3 -66 1 -33 3 -66 4 -72 2 -14 61
-18 63 -5 2 11 6 83 8 118 l1 31 298 -1 297 -1 0 -102 c0 -63 4 -103 10 -104
5 0 18 -2 27 -4 26 -5 30 9 32 106 1 49 5 92 10 96 4 4 38 7 76 7 70 1 73 2
73 41 0 8 -1 18 -2 23 0 4 -337 7 -748 7 l-748 0 1 425 0 425 87 154 c109 191
171 283 261 390 200 237 429 311 999 320 l37 1 0 51 0 52 -168 -7 c-92 -4
-179 -8 -193 -10 -13 -3 -53 -7 -89 -11 -145 -14 -310 -62 -415 -120 -156 -87
-294 -239 -445 -490 -40 -66 -74 -121 -75 -122 -1 -2 -1 318 -1 710 1 391 0
718 -2 725 -4 13 -58 17 -64 5z m-3 -1915 l0 -123 -79 -3 -78 -3 23 38 c13 21
42 68 66 106 24 37 43 71 43 75 0 6 20 32 25 32 0 0 0 -55 0 -122z m-86 -198
l87 0 -1 -184 c0 -101 -4 -188 -8 -193 -10 -9 -827 -11 -821 -2 2 4 25 10 51
14 59 9 200 58 261 92 103 56 236 174 304 270 28 39 33 42 36 24 3 -20 9 -21
91 -21z"/>
</g>
</svg>
